<?xml version="1.0" encoding="utf-8"?><svg viewBox="0 0 41 27" xmlns="http://www.w3.org/2000/svg" xmlns:xlink="http://www.w3.org/1999/xlink"><style>:root>svg{display:none}:root>svg:target{display:block}</style><svg fill="none" viewBox="0 0 41 27" id="conv" xmlns="http://www.w3.org/2000/svg"><path d="M4.346 8.598c.506.288 2.03 1.145 4.574 2.57a1113.14 1113.14 0 0 1 5.846 3.292c.148.084.464.267.948.55.483.283.885.511 1.204.686.32.174.707.37 1.16.586a7.52 7.52 0 0 0 1.284.486c.402.109.773.163 1.115.163h.045c.342 0 .714-.054 1.116-.163a7.57 7.57 0 0 0 1.283-.486c.453-.217.84-.412 1.16-.586.32-.175.721-.403 1.205-.686.483-.283.8-.466.948-.55 1.368-.77 4.85-2.724 10.442-5.863 1.085-.613 1.992-1.352 2.721-2.218.73-.866 1.094-1.773 1.094-2.723 0-.794-.354-1.474-1.06-2.039-.707-.565-1.544-.847-2.51-.847H4.078c-1.145 0-2.026.312-2.643.937-.618.626-.926 1.407-.926 2.345 0 .758.409 1.579 1.227 2.463.818.883 1.688 1.578 2.61 2.083z" fill="#fff"/><path d="M38.26 10.528c-4.879 2.67-8.583 4.744-11.111 6.223-.848.505-1.536.9-2.064 1.182-.528.282-1.23.57-2.108.865-.878.295-1.696.442-2.454.442h-.046c-.758 0-1.576-.147-2.454-.442-.877-.294-1.58-.583-2.108-.865a54.278 54.278 0 0 1-2.064-1.182c-2.008-1.19-5.704-3.265-11.089-6.223A11.498 11.498 0 0 1 .509 8.959v14.322c0 .794.35 1.473 1.048 2.038.7.565 1.54.848 2.522.848H36.92c.982 0 1.822-.283 2.521-.848.7-.565 1.049-1.244 1.049-2.038V8.959c-.64.577-1.383 1.1-2.232 1.57z" fill="#fff"/></svg><svg fill="none" viewBox="0 0 18 23" id="video__popup" xmlns="http://www.w3.org/2000/svg"><path d="M.981.98a1.281 1.281 0 0 1 1.212 0l14.449 9.798c.374.202.606.575.606.98 0 .404-.231.777-.606.979L2.193 22.535a1.29 1.29 0 0 1-1.211 0 1.121 1.121 0 0 1-.607-.98V1.96c0-.403.231-.777.606-.98z" fill="#FD346E"/></svg></svg>