<svg width="41" height="27" viewBox="0 0 41 27" fill="none" xmlns="http://www.w3.org/2000/svg">
<path d="M4.34627 8.59788C4.85204 8.88642 6.3766 9.74336 8.92005 11.1683C11.4636 12.5932 13.4121 13.6904 14.7657 14.4598C14.9144 14.5442 15.2303 14.7275 15.7137 15.0101C16.1971 15.2929 16.5988 15.5214 16.9184 15.6957C17.2382 15.87 17.6249 16.0654 18.0788 16.2818C18.5325 16.498 18.9602 16.6606 19.3618 16.7683C19.7635 16.8768 20.1353 16.9306 20.4774 16.9306H20.4998H20.5223C20.8643 16.9306 21.2363 16.8768 21.638 16.7683C22.0394 16.6606 22.4675 16.4978 22.9208 16.2818C23.3744 16.0652 23.7611 15.8699 24.0809 15.6957C24.4008 15.5214 24.8022 15.2929 25.2857 15.0101C25.769 14.7273 26.0853 14.5442 26.234 14.4598C27.6022 13.6904 31.0831 11.7362 36.6756 8.5975C37.7614 7.98449 38.6685 7.2448 39.3973 6.37894C40.1265 5.51346 40.4908 4.60552 40.4908 3.65564C40.4908 2.86187 40.1373 2.18238 39.4307 1.61726C38.7242 1.052 37.8874 0.769531 36.9209 0.769531H4.07846C2.93322 0.769531 2.05188 1.08214 1.4346 1.70735C0.817391 2.33269 0.508789 3.11433 0.508789 4.05221C0.508789 4.80978 0.917966 5.63072 1.73593 6.51452C2.55382 7.39838 3.42422 8.0929 4.34627 8.59788Z" fill="white"/>
<path d="M38.2594 10.5282C33.3811 13.1975 29.677 15.2721 27.1487 16.7513C26.3009 17.2562 25.6131 17.6503 25.0849 17.9327C24.5567 18.2153 23.8542 18.5039 22.9765 18.7984C22.0991 19.0933 21.2813 19.2403 20.5226 19.2403H20.4999H20.4774C19.7188 19.2403 18.9007 19.0933 18.0232 18.7984C17.1458 18.5039 16.4429 18.2153 15.9148 17.9327C15.3869 17.6503 14.6989 17.2562 13.8512 16.7513C11.8431 15.5609 8.14686 13.4863 2.76247 10.5282C1.91442 10.0715 1.16327 9.54811 0.508789 8.95898V23.2805C0.508789 24.0747 0.858184 24.7538 1.55736 25.319C2.25639 25.8844 3.09694 26.167 4.07869 26.167H36.9212C37.9027 26.167 38.7432 25.8844 39.4423 25.319C40.1416 24.7536 40.4908 24.0748 40.4908 23.2805V8.95898C39.8511 9.53592 39.1076 10.0594 38.2594 10.5282Z" fill="white"/>
</svg>
